<svg xmlns="http://www.w3.org/2000/svg" xmlns:xlink="http://www.w3.org/1999/xlink" width="140" height="140" viewBox="0 0 140 140"><defs><style>.a{fill:url(#a);}.b{fill:url(#c);}.c{fill:#f2aeae;font-size:30px;font-family:NotoSansCJKtc-Bold, Noto Sans CJK TC;font-weight:700;}.d{clip-path:url(#d);}.e{fill:url(#e);}.f{filter:url(#f);}</style><linearGradient id="a" x1="0.63" y1="1" x2="0.13" y2="0.603" gradientUnits="objectBoundingBox"><stop offset="0" stop-color="#e34f57"/><stop offset="1" stop-color="#e13335"/></linearGradient><linearGradient id="c" x1="0.708" y1="0.905" x2="0.418" y2="0.122" gradientUnits="objectBoundingBox"><stop offset="0" stop-color="#d43b43"/><stop offset="1" stop-color="#ae1f20"/></linearGradient><clipPath id="d"><circle class="a" cx="70" cy="70" r="70"/></clipPath><linearGradient id="e" x1="0.5" x2="0.5" y2="1" gradientUnits="objectBoundingBox"><stop offset="0" stop-color="#f95e65"/><stop offset="1" stop-color="#9b1416"/></linearGradient><filter id="f" x="-15" y="-15" width="170" height="170" filterUnits="userSpaceOnUse"><feOffset input="SourceAlpha"/><feGaussianBlur stdDeviation="5" result="g"/><feFlood flood-opacity="0.349"/><feComposite operator="in" in2="g"/><feComposite in="SourceGraphic"/></filter></defs><circle class="b" cx="70" cy="70" r="70" transform="translate(0)"/><text class="c" transform="translate(40 84)"><tspan x="0" y="0">查詢</tspan></text><g class="d"><g class="f" transform="matrix(1, 0, 0, 1, 0, 0)"><path class="e" d="M70,140A70.019,70.019,0,0,1,42.753,5.5a70.018,70.018,0,0,1,54.494,129A69.56,69.56,0,0,1,70,140ZM70,10a60,60,0,1,0,60,60A60.068,60.068,0,0,0,70,10Z" transform="translate(0 0)"/></g></g></svg>