<svg xmlns="http://www.w3.org/2000/svg" width="30" height="29.999" viewBox="0 0 30 29.999"><defs><style>.a{fill:#7d7d7d;}.b{fill:#fff;stroke:rgba(0,0,0,0);stroke-miterlimit:10;}</style></defs><rect class="a" width="30" height="29.999" rx="5"/><g transform="translate(-141.917 -316.124)"><path class="b" d="M2550.019,1357.124h0l-13.1-2.267v-17.465l13.1-2.267v22Zm-6.453-9.987v0l1.094,2.775,1.688.093-1.829-4.019,1.75-4.059-1.545.111-1.194,2.727-.927-2.561-1.492.067,1.481,3.731-1.669,3.649,1.467.109,1.175-2.623Z" transform="translate(-2391 -1015)"/><path class="b" d="M2545.619,1352.042h-8.7v-1.487h3.321v-2.285h-3.321v-.686h3.321V1345.3h-3.321v-.686h3.321v-2.287h-3.321v-.686h3.321v-2.284h-3.321v-.686h3.321v-2.287h-3.321v-1.258h8.7c.481,0,.572.091.572.572v15.773C2546.191,1351.951,2546.1,1352.042,2545.619,1352.042Zm-4.694-3.772v2.285h3.778v-2.285Zm0-2.973v2.287h3.778V1345.3Zm0-2.973v2.287h3.778v-2.287Zm0-2.97v2.284h3.778v-2.284Zm0-2.973v2.287h3.778v-2.287Z" transform="translate(-2377.275 -1012.46)"/></g></svg>