<svg xmlns="http://www.w3.org/2000/svg" xmlns:xlink="http://www.w3.org/1999/xlink" width="140" height="140.001" viewBox="0 0 140 140.001"><defs><style>.a{fill:url(#c);}.b{fill:#fff;font-size:30px;font-family:NotoSansCJKtc-Bold, Noto Sans CJK TC;font-weight:700;}.c{fill:url(#d);}</style><linearGradient id="a" x1="0.63" y1="1" x2="0.13" y2="0.603" gradientUnits="objectBoundingBox"><stop offset="0" stop-color="#e34f57"/><stop offset="1" stop-color="#e13335"/></linearGradient><linearGradient id="c" x1="0.291" y1="0.169" x2="0.819" y2="0.856" xlink:href="#a"/><linearGradient id="d" x1="0.5" x2="0.5" y2="1" gradientUnits="objectBoundingBox"><stop offset="0" stop-color="#f95e65"/><stop offset="1" stop-color="#9b1416"/></linearGradient></defs><circle class="a" cx="70" cy="70" r="70" transform="translate(0)"/><text class="b" transform="translate(40 62.87)"><tspan x="0" y="0">中獎</tspan><tspan x="0" y="38">輸入</tspan></text><path class="c" d="M70,140A70.019,70.019,0,0,1,42.753,5.5a70.018,70.018,0,0,1,54.494,129A69.56,69.56,0,0,1,70,140ZM70,10a60,60,0,1,0,60,60A60.068,60.068,0,0,0,70,10Z" transform="translate(0 0)"/></svg>