<svg xmlns="http://www.w3.org/2000/svg" width="30" height="29.999" viewBox="0 0 30 29.999"><defs><style>.a{fill:#7d7d7d;}.b,.c{fill:#fff;}.b{stroke:rgba(0,0,0,0);stroke-miterlimit:10;}.d{opacity:0.2;}</style></defs><rect class="a" width="30" height="29.999" rx="5"/><g transform="translate(6 3)"><path class="b" d="M2489.154,1030.884H2473.7a1.706,1.706,0,0,1-1.7-1.7V1016h18.857v13.181A1.706,1.706,0,0,1,2489.154,1030.884Zm-4.1-13.065v5.776h1.166v-2.455h2.412v-.977h-2.412V1018.8h2.794v-.977Zm-5.839,0v5.776h2.194a3.531,3.531,0,0,0,1.033-.122,2.052,2.052,0,0,0,.819-.461,2.561,2.561,0,0,0,.619-1.021,3.816,3.816,0,0,0,.177-1.229,4.305,4.305,0,0,0-.189-1.365,2.551,2.551,0,0,0-.553-.936,1.936,1.936,0,0,0-.87-.532,4.209,4.209,0,0,0-1.1-.11Zm-5.378,0v5.776h1.166v-2.179h.76a6.722,6.722,0,0,0,1.211-.083,1.692,1.692,0,0,0,.6-.274,1.591,1.591,0,0,0,.49-.57,1.892,1.892,0,0,0,.193-.895,1.8,1.8,0,0,0-.335-1.125,1.521,1.521,0,0,0-.832-.565,6.845,6.845,0,0,0-1.387-.086Zm7.415,4.8h-.87V1018.8h.524a5.325,5.325,0,0,1,.958.055,1.114,1.114,0,0,1,.54.272,1.338,1.338,0,0,1,.331.56,3.474,3.474,0,0,1,.118,1.028,3.809,3.809,0,0,1-.118,1.058,1.223,1.223,0,0,1-.306.557,1.068,1.068,0,0,1-.471.24A3.094,3.094,0,0,1,2481.255,1022.622Zm-5.611-2.187h-.639V1018.8h.564a5.6,5.6,0,0,1,.839.039.809.809,0,0,1,.469.256.737.737,0,0,1,.185.52.779.779,0,0,1-.132.449.77.77,0,0,1-.365.284A3.026,3.026,0,0,1,2475.645,1020.435Z" transform="translate(-2472 -1006.884)"/><path class="c" d="M284.535,255.823v-3.288l-6.3-6.365H267.382a1.709,1.709,0,0,0-1.7,1.7v7.949Z" transform="translate(-265.678 -246.17)"/><path class="d" d="M332.768,246.17l-.646,5.876a1.709,1.709,0,0,0,1.7,1.7l5.238-1.215Z" transform="translate(-320.207 -246.17)"/><path class="c" d="M335.815,246.169v4.653a1.709,1.709,0,0,0,1.7,1.7h4.576Z" transform="translate(-323.237 -246.169)"/></g></svg>