<svg xmlns="http://www.w3.org/2000/svg" width="30" height="29.999" viewBox="0 0 30 29.999"><defs><style>.a{fill:#7d7d7d;}.b{fill:#fff;}</style></defs><rect class="a" width="30" height="29.999" rx="5"/><path class="b" d="M379.318,170.51h1.921v-3.959a.571.571,0,0,1,.16-.407.548.548,0,0,1,.4-.168h13.371a.551.551,0,0,1,.392.171.574.574,0,0,1,.158.4v3.959h1.913a.567.567,0,0,1,.55.575v5.4h1.376a.913.913,0,0,1,.652.281.951.951,0,0,1,.265.669v8.587a.937.937,0,0,1-.917.95H377.4a.92.92,0,0,1-.658-.278.959.959,0,0,1-.272-.672v-8.587a.956.956,0,0,1,.271-.673.916.916,0,0,1,.659-.277h1.363v-5.4A.572.572,0,0,1,379.318,170.51Zm.563,5.979h1.357v-4.849h-1.357Zm2.458,0h12.267v-9.384H382.339Zm13.375,0h1.363v-4.849h-1.362v4.849Zm-13.373,8.587h12.267v-1.525h-12.27v1.525Z" transform="translate(-373.474 -161.475)"/></svg>