<svg xmlns="http://www.w3.org/2000/svg" width="30" height="30" viewBox="0 0 30 30"><defs><style>.a{fill:none;}.b{fill:#fff;}</style></defs><rect class="a" width="30" height="30"/><path class="b" d="M63-38A13,13,0,0,0,50-25,13,13,0,0,0,63-12,13,13,0,0,0,76-25,13,13,0,0,0,63-38Zm0,3.9a3.9,3.9,0,0,1,3.9,3.9A3.9,3.9,0,0,1,63-26.3a3.9,3.9,0,0,1-3.9-3.9A3.9,3.9,0,0,1,63-34.1Zm0,18.46a9.361,9.361,0,0,1-7.8-4.186c.039-2.587,5.2-4,7.8-4s7.761,1.417,7.8,4A9.361,9.361,0,0,1,63-15.64Z" transform="translate(-48 40)"/></svg>