<svg xmlns="http://www.w3.org/2000/svg" width="33" height="24" viewBox="0 0 33 24"><defs><style>.a{fill:none;stroke-miterlimit:10;}.b,.c{stroke:none;}</style></defs><g class="a" transform="translate(-0.556)"><path class="b" d="M9.231,1.946A6.015,6.015,0,0,1,13.662,0H28.547a5,5,0,0,1,5.008,5V19a5,5,0,0,1-5.008,5H14.083a6.015,6.015,0,0,1-4.339-1.849L.973,13.015a1.5,1.5,0,0,1-.023-2.051Z"/><path class="c" d="M 13.66154479980469 2 C 12.53981399536133 2 11.46193504333496 2.473230361938477 10.70430374145508 3.29833984375 L 2.742231369018555 11.96957492828369 L 11.1867847442627 20.76641082763672 C 11.93935394287109 21.55036926269531 12.99506378173828 22 14.08322334289551 22 L 28.54726409912109 22 C 30.20613479614258 22 31.55572509765625 20.65420913696289 31.55572509765625 19 L 31.55572509765625 5 C 31.55572509765625 3.345790863037109 30.20613479614258 2 28.54726409912109 2 L 13.66154479980469 2 M 13.66154479980469 0 L 28.54726409912109 0 C 31.31336402893066 0 33.55572509765625 2.238580703735352 33.55572509765625 5 L 33.55572509765625 19 C 33.55572509765625 21.76141929626465 31.31336402893066 24 28.54726409912109 24 L 14.08322334289551 24 C 12.44488334655762 24 10.87754440307617 23.33230018615723 9.743974685668945 22.15143013000488 L 0.9734725952148438 13.01506042480469 C 0.4254150390625 12.44414043426514 0.4154434204101563 11.54652976989746 0.95068359375 10.96362018585205 L 9.231134414672852 1.945650100708008 C 10.36951446533203 0.7058792114257813 11.97685432434082 0 13.66154479980469 0 Z"/></g><path d="M5.543,4.129,1.707.293A1,1,0,0,0,.293,1.707L4.129,5.543.293,9.379a1,1,0,0,0,1.414,1.414L5.543,6.957l3.836,3.836a1,1,0,0,0,1.414-1.414L6.957,5.543l3.836-3.836A1,1,0,0,0,9.379.293Z" transform="translate(14.438 6.457)"/></svg>