<svg xmlns="http://www.w3.org/2000/svg" width="32.998" height="24" viewBox="0 0 32.998 24"><path d="M3095.992,1338h-14.465a6.042,6.042,0,0,1-4.339-1.849l-8.771-9.137a1.5,1.5,0,0,1-.022-2.051l8.28-9.018a6.029,6.029,0,0,1,4.431-1.946h14.886a5.01,5.01,0,0,1,5.008,5v14A5.01,5.01,0,0,1,3095.992,1338Zm-14.2-22.181a5.232,5.232,0,0,0-3.817,1.651l-7.133,7.651a1.259,1.259,0,0,0,.02,1.741l7.555,7.752a5.247,5.247,0,0,0,3.739,1.569h12.461a4.284,4.284,0,0,0,4.314-4.243v-11.878a4.283,4.283,0,0,0-4.314-4.242Z" transform="translate(-3068.001 -1314)"/><path d="M5.543,4.129,1.707.293A1,1,0,0,0,.293,1.707L4.129,5.543.293,9.379a1,1,0,0,0,1.414,1.414L5.543,6.957l3.836,3.836a1,1,0,0,0,1.414-1.414L6.957,5.543l3.836-3.836A1,1,0,0,0,9.379.293Z" transform="translate(14.437 6.457)"/></svg>