<svg xmlns="http://www.w3.org/2000/svg" width="230" height="40" viewBox="0 0 230 40"><defs><style>.a{fill:none;}.b{fill:#e50020;}.c{fill:#221815;}</style></defs><rect class="a" width="230" height="40"/><g transform="translate(113.234 19.96)"><path class="b" d="M56.316,26.153H0V0H56.316V26.152ZM12.351,3.456l-.249,0c-10.114.458-9.859,9.314-9.843,9.69A12.669,12.669,0,0,0,3.575,18.11a7.778,7.778,0,0,0,7.276,4.327l.221,0a9.276,9.276,0,0,0,7.512-3.168,8.158,8.158,0,0,0,1.667-3.227v-.2h-1.17v.121c-1.795,3.7-3.182,4.427-5.809,4.744a2.932,2.932,0,0,1-.451.033A6.889,6.889,0,0,1,8.673,18.9,7.661,7.661,0,0,1,5.93,13.068c-.04-5.1,2.224-8.042,6.375-8.283.1-.006.21-.009.315-.009a5.654,5.654,0,0,1,4.3,2.182,8.364,8.364,0,0,1,1.353,2.211l.081.12h1.008L17.75,4.021h-.161a4.575,4.575,0,0,1-.727.058,4.574,4.574,0,0,1-.727-.058l-.686-.16A12.068,12.068,0,0,0,12.351,3.456ZM28.319,20.989V22.2h8.069V20.989l-.162-.04c-.036,0-.073,0-.109,0a1.787,1.787,0,0,1-1.262-.525,2.657,2.657,0,0,1-.525-1.85V7.278a2.645,2.645,0,0,1,.686-2.011,1.415,1.415,0,0,1,.947-.363h.263V3.659H28.4V4.906h.162c.039,0,.077,0,.115,0a1.85,1.85,0,0,1,1.3.526,2.6,2.6,0,0,1,.564,1.729v4.7H24.971V7.278a2.255,2.255,0,0,1,2.178-2.413h.162V3.7H18.92V4.865h.2c2.05,0,2.178,2.349,2.178,2.373V18.657a2.379,2.379,0,0,1-2.178,2.373H18.96V22.2h8.391V20.949h-.2c-2.153,0-2.178-2.308-2.178-2.331V13.35h5.567v5.267a2.243,2.243,0,0,1-2.057,2.372Zm12.844.943h.005a37.621,37.621,0,0,1,4.255.182,12.763,12.763,0,0,0,1.455.081,8.084,8.084,0,0,0,5.282-1.609,4.641,4.641,0,0,0,1.493-3.659,5.131,5.131,0,0,0-4.276-5.066,4.273,4.273,0,0,0,2.9-3.941c0-3.211-3.888-4.544-5.97-4.544l-2.905.241a18.1,18.1,0,0,1-2.755.211c-.2,0-.4,0-.593-.01L37.477,3.7V4.946h.162c.017,0,1.653.146,1.653,2.493V18.657s0,.012,0,.023a2.292,2.292,0,0,1-1.615,2.269h-.12v1.046h.2l.051,0C38.911,21.954,40.1,21.933,41.164,21.933Zm-30.06.185h0l-.252,0a7.505,7.505,0,0,1-6.974-4.006,11.8,11.8,0,0,1-1.256-5c-.057-2.081.46-8.9,9.48-9.328l.254,0a11.123,11.123,0,0,1,2.973.4l.726.16a4.84,4.84,0,0,0,.842.074,4.889,4.889,0,0,0,.57-.034c.094.327,1.25,4.1,1.412,4.5h-.323c-.216-.458-2.215-4.474-6-4.474-.111,0-.224,0-.336.01-4.106.254-6.735,3.647-6.7,8.645A8.021,8.021,0,0,0,8.351,19.18a7.275,7.275,0,0,0,4.432,1.883,3.5,3.5,0,0,0,.49-.033c2.749-.363,4.192-1.119,6.011-4.865h.565C19.6,17.159,18,22.117,11.1,22.117Zm-3.2-16.89A10.1,10.1,0,0,0,5.229,7.3a8.067,8.067,0,0,0-2.163,6.534c.4,3.863,2.393,5.735,4,6.625a8.256,8.256,0,0,0,3.424,1.016,8.425,8.425,0,0,1-3.166-2.025,9.825,9.825,0,0,1-2.8-5.615A9.2,9.2,0,0,1,5.925,7.6,10.839,10.839,0,0,1,7.907,5.227ZM46.862,21.835a12.589,12.589,0,0,1-1.438-.082c-1.054-.121-2.741-.146-3.971-.146-1.636,0-3.158.043-3.573.066V21.15a2.628,2.628,0,0,0,1.734-2.332.467.467,0,0,0-.04-.2V7.438c0-2.107-1.241-2.67-1.775-2.814V4.061l2.219.081c.174,0,.349.006.521.006a21.183,21.183,0,0,0,2.949-.207h-.04L46.312,3.7c1.969,0,5.648,1.239,5.648,4.222a3.611,3.611,0,0,1-1.553,3.006,4.511,4.511,0,0,1-1.675.774v.362l.044.007c1.05.171,4.479,1.025,4.515,4.858a4.28,4.28,0,0,1-1.412,3.418A7.96,7.96,0,0,1,46.862,21.835Zm-4.141-9.21v5.55a2.658,2.658,0,0,0,2.653,2.871,2.707,2.707,0,0,0,.292-.016c3.213,0,4.357-2.1,4.357-4.061,0-2-.55-4.3-4.841-4.3l-2.3-.04Zm6.132.282c3.182,3.661.705,6.664-.109,7.651-.158.191-.253.307-.237.34,0,.007.011.01.023.01a4.424,4.424,0,0,0,1.946-.7,3.546,3.546,0,0,0,1.644-3.116c0-3.172-3.232-4.172-3.267-4.182ZM38.889,4.5h0a2.44,2.44,0,0,1,1.25,1.688V19.22a2.791,2.791,0,0,1-.847,1.649,9.175,9.175,0,0,1,1.792-.133c.784,0,1.479.047,1.555.052-.756-.2-1-1.634-1.007-1.649V6.193A2.184,2.184,0,0,1,42.721,4.5a4.232,4.232,0,0,1-1.442.179A19.868,19.868,0,0,1,38.889,4.5ZM42.8,11.862c.012,0,.051.006.11.016a9.762,9.762,0,0,0,1.552.131,4.741,4.741,0,0,0,3.1-.911,3.283,3.283,0,0,0,1.17-2.734c-.04-2.6-1.226-3.981-3.429-3.981h-.12a2.546,2.546,0,0,0-1.9.563A2.509,2.509,0,0,0,42.681,6.8v5.067Zm4.72-7.4h0c.939.506,1.321,1.4,1.573,3.657a4.276,4.276,0,0,1-1.25,3.5A3.547,3.547,0,0,0,50.83,8C50.83,4.88,47.59,4.471,47.522,4.463ZM26.948,21.834H19.283v-.483a2.7,2.7,0,0,0,2.34-2.694V7.238c0-.025-.211-2.534-2.34-2.694V4.061h7.665v.483a2.51,2.51,0,0,0-2.34,2.734v4.946h6.333V7.157a2.964,2.964,0,0,0-.686-1.97,2.125,2.125,0,0,0-1.493-.643V4.021h7.1v.523a1.784,1.784,0,0,0-1.13.442,3.163,3.163,0,0,0-.767,2.292v11.5a2.932,2.932,0,0,0,.646,1.93,1.989,1.989,0,0,0,1.423.6h.029v.483H28.682v-.483A2.611,2.611,0,0,0,30.9,18.617V12.988H24.608v5.629c0,.025.027,2.532,2.34,2.654v.561Zm3.39-17.168c1,0,1.326,1.75,1.329,1.768V19.421c0,.757-.958,1.56-.968,1.568h3.51a2.264,2.264,0,0,1-1.13-1.568V6.393c0-.915,1.2-1.721,1.21-1.729H30.339Zm-9.319,0c.957,0,1.286,1.75,1.289,1.768V19.421c0,.757-.958,1.56-.968,1.568H24.89a2.2,2.2,0,0,1-1.17-1.568V6.393c0-.916,1.238-1.721,1.251-1.729H21.019Zm24.446,16.01a2.616,2.616,0,0,1-1.775-.691,2.647,2.647,0,0,1-.646-1.769V12.948h2.139c1.779,0,3.043.441,3.757,1.312a4.155,4.155,0,0,1,.762,2.669c0,1.808-1.06,3.739-4.035,3.739C45.6,20.673,45.531,20.675,45.465,20.675Zm-.963-8.95A7.65,7.65,0,0,1,43,11.58V6.8a2.18,2.18,0,0,1,.525-1.609,2.2,2.2,0,0,1,1.614-.442h.2c.738,0,2.985,0,3.066,3.66A3.069,3.069,0,0,1,47.361,10.9,4.621,4.621,0,0,1,44.5,11.726Z" transform="translate(-109.234 -15.96)"/><g transform="translate(-109.193 11.97)"><path class="b" d="M3.206,70.688a1.049,1.049,0,0,0-1.17-.8A1.38,1.38,0,0,0,.665,71.412c0,1.006.363,1.61,1.372,1.61a1.209,1.209,0,0,0,1.21-1.087h.524a1.733,1.733,0,0,1-1.815,1.529C1.028,73.505.1,72.9.1,71.412S.826,69.4,2.036,69.4s1.614.644,1.694,1.288Z" transform="translate(-0.1 -69.4)"/><path class="b" d="M14.1,69.7h.565v3.864H14.1V71.753H11.965v1.811H11.4V69.7h.565v1.61h2.178Z" transform="translate(-6.841 -69.579)"/><path class="b" d="M22.67,71.954l.686-1.69h0l.605,1.69Zm1.493.483.444,1.127h.605L23.719,69.7h-.686L21.5,73.564h.565l.444-1.127Z" transform="translate(-12.867 -69.579)"/><path class="b" d="M35.543,69.7h.524v3.864h-.605l-2.1-3.139h0v3.139H32.8V69.7h.686l2.057,3.139h.04Z" transform="translate(-19.608 -69.579)"/><path class="b" d="M45.368,71.292h1.815v2.093h-.363l-.161-.523a1.981,1.981,0,0,1-2.622.2,2.05,2.05,0,0,1-.645-1.65A1.934,1.934,0,0,1,45.328,69.4a1.663,1.663,0,0,1,1.735,1.288h-.524a1.13,1.13,0,0,0-1.251-.8,1.394,1.394,0,0,0-1.372,1.57c0,1.046.282,1.57,1.372,1.57a1.455,1.455,0,0,0,.847-.2,1.206,1.206,0,0,0,.444-1.046h-1.21Z" transform="translate(-25.924 -69.4)"/><path class="b" d="M62.3,69.7h.565v3.864H62.3V71.753H60.124v1.811H59.6V69.7h.524v1.61H62.3Z" transform="translate(-35.597 -69.579)"/><path class="b" d="M71.354,73.564h-.605L69.7,69.7h.605l.766,3.139h0L72,69.7h.645l.887,3.139h.04l.766-3.139h.605l-1.089,3.864H73.25l-.928-3.22h-.04Z" transform="translate(-41.623 -69.579)"/><path class="b" d="M84.47,71.954l.686-1.69h0l.605,1.69Zm1.493.483.4,1.127h.605L85.478,69.7h-.605L83.3,73.564h.605l.4-1.127Z" transform="translate(-49.736 -69.579)"/><path class="b" d="M99.165,70.2h1.009c.605,0,.847.2.847.563s-.323.644-.888.644h-.968ZM98.6,73.623h1.775c.928,0,1.412-.523,1.412-1.127a.966.966,0,0,0-.766-.926.845.845,0,0,0,.524-.8c0-.523-.4-.966-1.17-.966H98.6Zm.565-1.811h1.089c.444,0,.968.08.968.644s-.282.724-.888.724h-1.21Z" transform="translate(-58.864 -69.639)"/><path class="b" d="M109.87,71.954l.686-1.69h0l.605,1.69Zm1.452.483.444,1.127h.605L110.878,69.7h-.645L108.7,73.564h.565l.444-1.127Z" transform="translate(-64.89 -69.579)"/><path class="b" d="M122.843,69.7h.524v3.864h-.645l-2.1-3.139h0v3.139H120.1V69.7h.645l2.057,3.139h0Z" transform="translate(-71.691 -69.579)"/><path class="b" d="M131.665,73.564H131.1V69.7h.565v1.892l2.017-1.892h.766l-1.735,1.57,1.735,2.334h-.686l-1.452-1.932-.645.563Z" transform="translate(-78.253 -69.579)"/></g><g transform="translate(-42.513 -14.783)"><path class="c" d="M182.258,13.781c1.977.161,3.106-.121,3.268-.322s.928,1.57,2.38.8,8.835-4.99,3.469-8.451c-1.775-1.328-3.913.926-3.147,2.012s-.565,5.232-2.259,4.91c.121-1.409-1.936-1.489-2.582-1.409s-1.251-.04-1.17-.563-.081-1.248,1.331-1.69,2.259-1.288.807-2.334-1.573.765-2.178-.926-3.51-4.1-6.051-2.173c-.645.443,0,1.731.2,2.374s.524,1.972-.726,1.932-3.066-.322-3.59.966a1.693,1.693,0,0,0,.686,2.334c.524.2,1.331.4,1.089,1.288s-.161,1.409-1.251,1.65-7.3.724-7.14,3.622.565,1.65,1.049,1.972,1.775.04,2.138.282,1.251-.926,1.936-1.409S177.377,14.022,182.258,13.781Zm-5.365-2.9c1.694-.885,2.178.121,2.178.322s.242,1.207-1.493,1.288-.686-1.57-.686-1.57Z" transform="translate(-165.392 -2.925)"/><path class="c" d="M188.736,43.944c.726.2,2.178,0,1.614-1.288s-1.331-1.127-2.42-.6-2.541-.322-1.775-.483.726-1.69,1.493-1.892.726-2.133,1.493-2.535.968-.483,1.251-2.133-2.259-2.213-3.832-1.69-8.915,3.542-8.915,3.542c.524,5.514,3.066,5.071,3.59,5.232s.605-.121.605.6-4.68,1.087-5.043,1.207-2.1-1.006-2.663,1.087,1.13,2.173,1.9,2.576,4.034-1.449,5.043-1.771.645.483.645.724-.04,3.381-.04,3.381,1.21,1.972,2.017,1.811,1.735-2.9,1.735-2.9V45.152C185.428,44.87,188.01,43.823,188.736,43.944Zm-4.518-5.715c.444-.161,1.17-.161,1.17.563s-2.1,1.127-3.147,1.127-1.856-2.213-1.654-2.978,4.276-1.61,4.276-1.61,1.452-.161,1.573.4-1.654,1.248-2.663,1.006-1.009.483-1.372,1.006S183.734,38.39,184.218,38.229Z" transform="translate(-170.539 -20.974)"/><path class="c" d="M218.826,37.649a4.2,4.2,0,0,0-1.977-.8c-.4-.08-1.331-.483-.766-1.046a4.075,4.075,0,0,1,1.936-1.248c.888-.322,1.493-1.288,1.13-1.892a7.013,7.013,0,0,0-1.936-1.811c-.807-.362-1.412-.644-2.219.644,0,0-1.694,3.5-2.38,3.9s-1.331,2.093.282,2.294,2.461.362,2.017,1.248-2.178,4.99-4.074,6.278-2.138,2.213-1.815,3.34.323,1.529,1.251.724,5.486-4.346,6.455-6.278,2.138-2.294,2.34-2.7S219.673,38.213,218.826,37.649Z" transform="translate(-191.35 -19.428)"/></g><g transform="translate(-1.681 -11.42)"><path class="c" d="M280.6,21.33c-.363-1.006-1.089-3.139-2.259-2.737s-.686-.322-1.13-.684-1.735,1.006-1.735,1.006a47.457,47.457,0,0,1-2.1,6.037c-1.251,1.65-3.026,5.876-5.527,7.848a2.87,2.87,0,0,0-1.17,1.811c0,.483-.363,2.415.484,2.213s4.76-4.185,5.446-5.071,1.533-.966,1.372.6-1.089,3.34-.605,4.266.928,2.7,1.936,2.7,1.815-1.489,1.614-3.5.282-7.606-.2-8.492,1.089-1.409,1.089-1.409a23.72,23.72,0,0,1,2.1-1.69A2.546,2.546,0,0,0,280.6,21.33Z" transform="translate(-266.608 -15.205)"/><path class="c" d="M313.526,28.512a1.568,1.568,0,0,1-.686-1.409,3.221,3.221,0,0,0-.524-2.012c-.323-.282-.242,5.554-5.93,4.95-4.155.322-3.429-3.3-3.348-3.7s-.161-.926,1.614-1.851a33.807,33.807,0,0,0,5.527-4.427c.2-.282.161-1.529-.2-1.731s-.645-1.57-.645-1.851-.242-1.771-2.057-1.006-1.009.121-1.372,1.087-.928,3.26-1.9,3.662-.847.161-.847-.2a7.54,7.54,0,0,1,1.009-3.421,3.236,3.236,0,0,0-.605-4.025c-1.17-1.006-3.026-1.61-3.429-1.127s-1.251,2.576-.524,3.582a1.928,1.928,0,0,1,.121,1.409c.04.765.524,7.2,0,8.049a4.935,4.935,0,0,1-1.856,2.213c-1.17.724-1.856,2.576-.726,2.9s1.17.2,1.614-.121.484-.08.645.362.645,4.91,3.994,4.829,9.521-.241,10.085-1.892l.484-1.65S313.97,28.875,313.526,28.512Z" transform="translate(-284.484 -11.279)"/></g><path class="c" d="M401.406,24.925c-2.7-2.213-6.051-.926-5.93-1.69s2.7-1.248,3.227-1.811,2.259-2.213.524-3.3-2.784.08-2.057-1.489,3.066-4.99,2.178-6.157-2.38-3.5-3.792-3.059a6.663,6.663,0,0,0-2.42,1.65c-.605.4-2.9.161-3.227,1.368s-1.049,3.381,1.815,2.616,2.5-.724,2.5-.04-.726.966-1.977,1.288-2.582.644-3.671-.121-1.775-.926-1.977-2.093S385.431,7.74,382.97,7.9c-.928.08-2.178.523-2.42,2.737s-2.421,7.365-3.268,7.888-2.34,3.421-3.026,3.662a2.8,2.8,0,0,0-1.331,2.052c-.161.8-.766,2.857.766,2.012s3.066-2.857,3.59-3.139.928.644,1.008.926.767.845,2.421.563,1.17,1.006,1.17,1.207.161,1.489-1.493.966-2.178-1.248-2.582-.08-.524,1.409.726,1.811,1.977.322,2.259-.2.605-1.248.888-.966a.907.907,0,0,1-.2,1.409c-.645.322-2.864,1.69-3.308,1.449s-1.936-.121-2.017.362,1.089,1.368,1.17,1.57.4,1.529,2.5.6a64.042,64.042,0,0,0,6.374-3.1c.121-.241,1.775-2.173.928-2.616s-.928-.684-.363-1.087,1.614-1.61,1.775-.161a5.323,5.323,0,0,1-.807,3.823c-.888,1.65-1.049,4.306.524,4.709s2.582-.523,3.59-2.978,1.251-2.012,1.331-3.9V25.649s-2.34,2.053-2.38.724.282-1.69,1.654-1.529,4.72,2.415,5.083,3.018,2.582,3.944,3.389,3.9S404.109,27.178,401.406,24.925ZM381.8,21.1c-.4.845-3.59,2.173-3.832,1.69s1.049-1.932,1.533-2.254.605-.644,1.291-.644,1.372.282,1.009,1.167Zm1.21-6.439c.242-.443.645-.644,1.573,0s.686,1.489.363,1.328a3.652,3.652,0,0,0-2.42.684c-.968.6.282-1.731.484-2.052ZM385.269,27.1c-.645.443-.686-.926-.686-.926s1.291.362.686.885ZM388.9,24.12c-.242.282-1.17,0-1.452-.523s-.4-.483-.968-.322-1.13,1.328-1.251,1.65-.645.684-.645-.483,1.089-1.69,1.936-2.093.887-1.167.807-2.455-1.412-.04-1.977.121-.686.161-.766-.282-.081-.8.928-1.006.767-1.449.686-2.213.605-.4.968-.282.686.161.928.684,1.089,6.922.847,7.164ZM391.563,17c.363-.241,1.573-.8,1.694.282s-1.009,1.207-1.775,1.006-.323-1.127.121-1.368Zm1.493,5.151c-.605.121-1.735-.08-1.654-.483s.081-.483.4-.563a5.117,5.117,0,0,0,1.452-.362c.2-.2.847.04.766.483a1.209,1.209,0,0,1-.968.845Z" transform="translate(-331.565 -20.359)"/><g transform="translate(84.306 -13.824)"><path class="c" d="M508.176,16.943c-.081-.483,0-2.334-.767-2.737s-2.017-1.449-2.662-1.328a4.159,4.159,0,0,0-2.34,1.288c-.928.926-1.089.6-1.9.8s-8.794,2.656-9.561,3.1-1.331.161-.928-.644.686-2.173.081-2.535-.444-.765,0-1.328,1.977-1.006,1.412-3.3-1.008-2.415-2.34-2.5-1.493-.765-2.219-.6-1.573.523-1.372,2.052a1.367,1.367,0,0,1-.524,1.489,24.756,24.756,0,0,1-2.743,3.864c-.847.684-.928.966-.484,1.932s0,.523-.081,1.167.2,1.087.807,1.006a2.268,2.268,0,0,0,1.815-.845c.524-.724,1.654-1.731,1.936-1.409s0,.8-.363,1.489-3.994,5.876-4.68,6.922-2.259,3.059-1.089,3.542,3.348-.845,4.6-2.978c.524-1.127,1.17-.8,1.13.4s-.968,6.278,1.291,6.278,2.461-1.006,2.34-2.254-.726-6.761-.645-7.083a1.928,1.928,0,0,0-.323-1.409c-.282-.362.081-1.409.484-1.65s.565-.322,1.009.483,2.1,2.656,3.348,1.65a14.128,14.128,0,0,1,3.752-1.771c.282-.121,1.089-.483,1.17.483s.04,5.514.04,5.876.121,1.449-1.412,1.449-4.115-.644-3.59.483,3.913,3.381,4.316,4.87,1.129,2.535,2.219,1.811,3.55-3.018,2.178-12.074c-1.17-5.836.242-4.709.928-4.87s3.389,0,4.4-.322S508.216,17.426,508.176,16.943Z" transform="translate(-479.759 -6.402)"/><path class="c" d="M515.484,11.26c1.775.241,2.178.563,2.945.121s1.251-.724,2.179-1.167a15.975,15.975,0,0,1,2.945-1.288c.444,0,.121-1.127-.161-1.69s-1.372-2.737-3.268-1.61c0,0-3.268,1.449-4.317,1.811s-1.815.644-1.573,1.489S513.709,11.059,515.484,11.26Z" transform="translate(-500.299 -5.306)"/></g></g></svg>